<svg width="19" height="20" viewBox="0 0 19 20" fill="none" xmlns="http://www.w3.org/2000/svg">
<path d="M9.50004 0C4.25399 0 0 4.59041 0 10.2531C0 14.7833 2.72205 18.6266 6.49673 19.9824C6.97149 20.0773 7.14583 19.76 7.14583 19.4891C7.14583 19.2447 7.13697 18.4369 7.13294 17.5802C4.48995 18.2004 3.93227 16.3704 3.93227 16.3704C3.50012 15.1853 2.87747 14.8703 2.87747 14.8703C2.01557 14.2339 2.94244 14.2469 2.94244 14.2469C3.89643 14.3193 4.39875 15.3035 4.39875 15.3035C5.24605 16.871 6.62115 16.4178 7.16327 16.1559C7.24851 15.4931 7.49475 15.0409 7.7664 14.7849C5.65636 14.5255 3.43813 13.6464 3.43813 9.71767C3.43813 8.59831 3.80925 7.6836 4.41701 6.96559C4.31836 6.7073 3.99321 5.6645 4.50903 4.25219C4.50903 4.25219 5.30677 3.97662 7.12222 5.3032C7.87995 5.07595 8.69268 4.96208 9.50004 4.95823C10.3074 4.96208 11.1207 5.07595 11.8799 5.3032C13.6932 3.97662 14.4899 4.25219 14.4899 4.25219C15.0069 5.6645 14.6816 6.7073 14.583 6.96559C15.1921 7.6836 15.5607 8.59823 15.5607 9.71767C15.5607 13.6557 13.3383 14.5229 11.2229 14.7767C11.5636 15.0948 11.8672 15.7189 11.8672 16.6754C11.8672 18.0472 11.8562 19.1514 11.8562 19.4891C11.8562 19.762 12.0272 20.0817 12.5088 19.981C16.2814 18.6237 19 14.7818 19 10.2531C19 4.59041 14.7466 0 9.50004 0Z" fill="white"/>
</svg>
