<svg width="82" height="28" viewBox="0 0 82 28" fill="none" xmlns="http://www.w3.org/2000/svg">
<g clip-path="url(#clip0_240_9)">
<path d="M77.4084 7.7095C79.1569 7.7095 80.5741 6.30141 80.5741 4.56424C80.5741 2.82706 79.1569 1.41898 77.4084 1.41898C75.6599 1.41898 74.2426 2.82706 74.2426 4.56424C74.2426 6.30094 75.6599 7.7095 77.4084 7.7095Z" fill="#E94F30"/>
<path d="M74.2436 9.58151V15.872H64.7462V9.58151H71.0778V3.291H64.7462V-3H58.4147V3.29052H42.5848C39.0878 3.29052 36.2532 6.10716 36.2532 9.58104V15.8716H26.7554V9.58151H33.0875V3.291H26.7554V-3H20.4239V15.872C20.4239 19.3464 23.2589 22.1626 26.7554 22.1626H48.9159C52.4129 22.1626 55.2474 19.3459 55.2474 15.872V9.58151H58.4132V15.872C58.4132 19.3464 61.2482 22.1626 64.7448 22.1626H74.2421C77.7391 22.1626 80.5737 19.3459 80.5737 15.872V9.58151H74.2436ZM48.9164 15.872H42.5848V9.58151H48.9164V15.872Z" fill="#3E255E"/>
<path d="M1.42773 12.2934H4.59352H10.9251H17.2571V6H10.9251H4.59352H1.42773V12.2934Z" fill="#3E255E"/>
</g>
<defs>
<clipPath id="clip0_240_9">
<rect width="82" height="28" fill="white"/>
</clipPath>
</defs>
</svg>
