<svg width="19" height="20" viewBox="0 0 19 20" fill="none" xmlns="http://www.w3.org/2000/svg">
<path fill-rule="evenodd" clip-rule="evenodd" d="M16.2318 2.90644C14.4457 1.0332 12.0703 0.00105288 9.53967 0C4.32528 0 0.0814093 4.44554 0.0793225 9.90983C0.0786269 11.6565 0.51427 13.3615 1.34209 14.8644L0 20L5.01507 18.6219C6.39681 19.4114 7.95255 19.8275 9.53589 19.8282H9.53978C14.7536 19.8282 18.9979 15.3821 19 9.91774C19.001 7.26966 18.0179 4.77968 16.2318 2.90644ZM9.53978 18.1543H9.53656C8.12565 18.1538 6.74177 17.7567 5.53454 17.0062L5.2474 16.8276L2.27142 17.6455L3.06578 14.6058L2.8788 14.2942C2.0917 12.9827 1.67597 11.4668 1.67659 9.91045C1.67832 5.36875 5.20569 1.67381 9.54289 1.67381C11.6431 1.67465 13.6173 2.53259 15.1019 4.08955C16.5864 5.64652 17.4036 7.71611 17.4028 9.91709C17.4009 14.4591 13.8736 18.1543 9.53978 18.1543ZM13.8528 11.9851C13.6164 11.8612 12.4543 11.2621 12.2376 11.1795C12.0209 11.0968 11.8633 11.0555 11.7057 11.3034C11.5482 11.5513 11.0952 12.1091 10.9572 12.2744C10.8194 12.4396 10.6815 12.4603 10.4451 12.3363C10.2087 12.2124 9.44708 11.9509 8.54419 11.1073C7.84152 10.4507 7.36708 9.63973 7.2292 9.39184C7.09131 9.14393 7.21454 9.00989 7.33286 8.88646C7.43919 8.7755 7.56923 8.59724 7.68743 8.45261C7.8056 8.30802 7.845 8.20473 7.92378 8.03948C8.00258 7.8742 7.96319 7.72958 7.90409 7.60564C7.845 7.4817 7.37228 6.26284 7.17527 5.76704C6.98342 5.28417 6.78853 5.3495 6.64343 5.34194C6.50571 5.33476 6.34797 5.33322 6.1904 5.33322C6.03281 5.33322 5.77674 5.39521 5.56005 5.64309C5.34339 5.89101 4.73276 6.4901 4.73276 7.70893C4.73276 8.92776 5.57976 10.1053 5.69795 10.2705C5.81613 10.4358 7.36476 12.9371 9.73598 14.0097C10.2999 14.2648 10.7403 14.4171 11.0835 14.5313C11.6498 14.7197 12.1651 14.6932 12.5724 14.6294C13.0266 14.5583 13.9709 14.0303 14.1679 13.4519C14.3649 12.8735 14.3649 12.3777 14.3058 12.2744C14.2468 12.1711 14.0892 12.1091 13.8528 11.9851Z" fill="white"/>
</svg>
